<svg width="19" height="22" viewBox="0 0 19 22" fill="none" xmlns="http://www.w3.org/2000/svg">
<path fill-rule="evenodd" clip-rule="evenodd" d="M8 0.65H7.88333L7.79 0.72L5.79 2.22L5.68302 2.30023L5.6568 2.43136L5.21307 4.65H4H3.95691L3.91511 4.66045L1.91511 5.16045L1.78384 5.19327L1.70878 5.30585L0.708782 6.80585L0.65 6.89403V7V18V18.0431L0.66045 18.0849L1.16045 20.0849L1.19327 20.2162L1.30585 20.2912L2.80585 21.2912L2.89403 21.35H3H16H16.106L16.1941 21.2912L17.6941 20.2912L17.8067 20.2162L17.8396 20.0849L18.3396 18.0849L18.35 18.0431V18V7V6.89403L18.2912 6.80585L17.2912 5.30585L17.2162 5.19327L17.0849 5.16045L15.0849 4.66045L15.0431 4.65H15H13.7869L13.3432 2.43136L13.317 2.30023L13.21 2.22L11.21 0.72L11.1167 0.65H11H8ZM13.0731 4.65L12.683 2.69977L10.8833 1.35H8.11667L6.31698 2.69977L5.92693 4.65H13.0731ZM5.07307 5.35H4.04309L2.21616 5.80673L1.35 7.10597V17.9569L1.80673 19.7838L3.10597 20.65H15.894L17.1933 19.7838L17.65 17.9569V7.10597L16.7838 5.80673L14.9569 5.35H13.9269H13.5H5.5H5.07307Z" fill="#FDFDFD"/>
</svg>
