<svg width="12" height="11" viewBox="0 0 12 11" fill="none" xmlns="http://www.w3.org/2000/svg">
<mask id="path-1-inside-1" fill="white">
<path fill-rule="evenodd" clip-rule="evenodd" d="M9 4C9 5.10577 8.49522 6.10675 7.67932 6.83079L11.4243 10.5757L11 11L7.20018 7.20018C6.44805 7.7024 5.51312 8 4.5 8C2.01472 8 0 6.20914 0 4C0 1.79086 2.01472 0 4.5 0C6.98528 0 9 1.79086 9 4Z"/>
</mask>
<path fill-rule="evenodd" clip-rule="evenodd" d="M9 4C9 5.10577 8.49522 6.10675 7.67932 6.83079L11.4243 10.5757L11 11L7.20018 7.20018C6.44805 7.7024 5.51312 8 4.5 8C2.01472 8 0 6.20914 0 4C0 1.79086 2.01472 0 4.5 0C6.98528 0 9 1.79086 9 4Z" fill="#3A3A3A"/>
<path d="M7.67932 6.83079L7.28107 6.38202L6.80473 6.80473L7.25505 7.25506L7.67932 6.83079ZM11.4243 10.5757L11.8485 11L12.2728 10.5757L11.8485 10.1515L11.4243 10.5757ZM11 11L10.5757 11.4243L11 11.8485L11.4243 11.4243L11 11ZM7.20018 7.20018L7.62444 6.77591L7.27636 6.42784L6.86699 6.70119L7.20018 7.20018ZM8.07757 7.27957C9.00693 6.45483 9.6 5.29624 9.6 4H8.4C8.4 4.91531 7.98351 5.75866 7.28107 6.38202L8.07757 7.27957ZM11.8485 10.1515L8.10358 6.40653L7.25505 7.25506L11 11L11.8485 10.1515ZM11.4243 11.4243L11.8485 11L11 10.1515L10.5757 10.5757L11.4243 11.4243ZM6.77591 7.62444L10.5757 11.4243L11.4243 10.5757L7.62444 6.77591L6.77591 7.62444ZM4.5 8.6C5.63075 8.6 6.68179 8.26779 7.53337 7.69916L6.86699 6.70119C6.21431 7.13701 5.3955 7.4 4.5 7.4V8.6ZM-0.6 4C-0.6 6.60499 1.75174 8.6 4.5 8.6V7.4C2.2777 7.4 0.6 5.81328 0.6 4H-0.6ZM4.5 -0.6C1.75174 -0.6 -0.6 1.39501 -0.6 4H0.6C0.6 2.18672 2.2777 0.6 4.5 0.6V-0.6ZM9.6 4C9.6 1.39501 7.24826 -0.6 4.5 -0.6V0.6C6.7223 0.6 8.4 2.18672 8.4 4H9.6Z" fill="white" mask="url(#path-1-inside-1)"/>
</svg>
